<mxfile host="app.diagrams.net" modified="2024-04-12T11:18:54.444Z" agent="Mozilla/5.0 (Windows NT 10.0; Win64; x64) AppleWebKit/537.36 (KHTML, like Gecko) Chrome/116.0.0.0 Safari/537.36" etag="xYGKObVNfs14Uuofu8N-" version="23.1.5" type="github">
  <diagram name="第 1 页" id="vdELNtridnz9O_xuzZ4U">
    <mxGraphModel dx="2261" dy="878" grid="1" gridSize="10" guides="1" tooltips="1" connect="1" arrows="1" fold="1" page="1" pageScale="1" pageWidth="827" pageHeight="1169" math="0" shadow="0">
      <root>
        <mxCell id="0" />
        <mxCell id="1" parent="0" />
        <mxCell id="qpLpTHVymYThpegGY-aI-2" value="" style="rounded=1;whiteSpace=wrap;html=1;arcSize=5;fillColor=#E6E6E6;dashed=1;strokeColor=#000000;strokeWidth=1;" vertex="1" parent="1">
          <mxGeometry x="510" y="140" width="380" height="580" as="geometry" />
        </mxCell>
        <mxCell id="qpLpTHVymYThpegGY-aI-63" value="" style="rounded=1;whiteSpace=wrap;html=1;" vertex="1" parent="1">
          <mxGeometry x="710" y="200" width="160" height="490" as="geometry" />
        </mxCell>
        <mxCell id="qpLpTHVymYThpegGY-aI-64" value="数据节点" style="rounded=1;whiteSpace=wrap;html=1;fillColor=#fff2cc;strokeColor=#d6b656;" vertex="1" parent="1">
          <mxGeometry x="730" y="370" width="120" height="40" as="geometry" />
        </mxCell>
        <mxCell id="qpLpTHVymYThpegGY-aI-65" value="数据节点" style="rounded=1;whiteSpace=wrap;html=1;fillColor=#fff2cc;strokeColor=#d6b656;" vertex="1" parent="1">
          <mxGeometry x="730" y="420" width="120" height="40" as="geometry" />
        </mxCell>
        <mxCell id="qpLpTHVymYThpegGY-aI-66" value="数据节点" style="rounded=1;whiteSpace=wrap;html=1;fillColor=#fff2cc;strokeColor=#d6b656;" vertex="1" parent="1">
          <mxGeometry x="730" y="470" width="120" height="40" as="geometry" />
        </mxCell>
        <mxCell id="qpLpTHVymYThpegGY-aI-67" value="数据节点" style="rounded=1;whiteSpace=wrap;html=1;fillColor=#fff2cc;strokeColor=#d6b656;" vertex="1" parent="1">
          <mxGeometry x="730" y="520" width="120" height="40" as="geometry" />
        </mxCell>
        <mxCell id="qpLpTHVymYThpegGY-aI-68" value="数据节点" style="rounded=1;whiteSpace=wrap;html=1;fillColor=#fff2cc;strokeColor=#d6b656;" vertex="1" parent="1">
          <mxGeometry x="730" y="570" width="120" height="40" as="geometry" />
        </mxCell>
        <mxCell id="qpLpTHVymYThpegGY-aI-69" value="数据节点" style="rounded=1;whiteSpace=wrap;html=1;fillColor=#fff2cc;strokeColor=#d6b656;" vertex="1" parent="1">
          <mxGeometry x="730" y="620" width="120" height="40" as="geometry" />
        </mxCell>
        <mxCell id="qpLpTHVymYThpegGY-aI-70" value="MySQL实例" style="rounded=1;whiteSpace=wrap;html=1;fillColor=#cdeb8b;strokeColor=#36393d;" vertex="1" parent="1">
          <mxGeometry x="730" y="220" width="120" height="40" as="geometry" />
        </mxCell>
        <mxCell id="qpLpTHVymYThpegGY-aI-71" value="编目节点" style="rounded=1;whiteSpace=wrap;html=1;fillColor=#cce5ff;strokeColor=#36393d;" vertex="1" parent="1">
          <mxGeometry x="730" y="320" width="120" height="40" as="geometry" />
        </mxCell>
        <mxCell id="qpLpTHVymYThpegGY-aI-72" value="协调节点" style="rounded=1;whiteSpace=wrap;html=1;fillColor=#eeeeee;strokeColor=#36393d;" vertex="1" parent="1">
          <mxGeometry x="730" y="270" width="120" height="40" as="geometry" />
        </mxCell>
        <mxCell id="qpLpTHVymYThpegGY-aI-73" value="host5" style="text;html=1;align=center;verticalAlign=middle;whiteSpace=wrap;rounded=1;" vertex="1" parent="1">
          <mxGeometry x="760" y="660" width="60" height="30" as="geometry" />
        </mxCell>
        <mxCell id="qpLpTHVymYThpegGY-aI-3" value="" style="rounded=1;whiteSpace=wrap;html=1;arcSize=5;fillColor=#E6E6E6;dashed=1;strokeColor=#000000;strokeWidth=1;" vertex="1" parent="1">
          <mxGeometry x="-80" y="140" width="560" height="580" as="geometry" />
        </mxCell>
        <mxCell id="qpLpTHVymYThpegGY-aI-75" value="" style="rounded=1;whiteSpace=wrap;html=1;" vertex="1" parent="1">
          <mxGeometry x="-57" y="200" width="160" height="490" as="geometry" />
        </mxCell>
        <mxCell id="qpLpTHVymYThpegGY-aI-4" value="" style="rounded=1;whiteSpace=wrap;html=1;" vertex="1" parent="1">
          <mxGeometry x="118" y="200" width="160" height="490" as="geometry" />
        </mxCell>
        <mxCell id="qpLpTHVymYThpegGY-aI-5" value="" style="rounded=1;whiteSpace=wrap;html=1;" vertex="1" parent="1">
          <mxGeometry x="294" y="200" width="160" height="490" as="geometry" />
        </mxCell>
        <mxCell id="qpLpTHVymYThpegGY-aI-6" value="" style="rounded=1;whiteSpace=wrap;html=1;" vertex="1" parent="1">
          <mxGeometry x="532" y="200" width="160" height="490" as="geometry" />
        </mxCell>
        <mxCell id="qpLpTHVymYThpegGY-aI-89" style="edgeStyle=orthogonalEdgeStyle;rounded=0;orthogonalLoop=1;jettySize=auto;html=1;entryX=0;entryY=0.5;entryDx=0;entryDy=0;" edge="1" parent="1" source="qpLpTHVymYThpegGY-aI-7" target="qpLpTHVymYThpegGY-aI-50">
          <mxGeometry relative="1" as="geometry" />
        </mxCell>
        <mxCell id="qpLpTHVymYThpegGY-aI-7" value="" style="rounded=1;whiteSpace=wrap;html=1;fillColor=none;dashed=1;gradientColor=#b3b3b3;strokeColor=#666666;" vertex="1" parent="1">
          <mxGeometry x="-50" y="616.5" width="910" height="47" as="geometry" />
        </mxCell>
        <mxCell id="qpLpTHVymYThpegGY-aI-8" value="" style="rounded=1;whiteSpace=wrap;html=1;fillColor=none;dashed=1;gradientColor=#b3b3b3;strokeColor=#666666;" vertex="1" parent="1">
          <mxGeometry x="-50" y="566.5" width="910" height="47" as="geometry" />
        </mxCell>
        <mxCell id="qpLpTHVymYThpegGY-aI-9" value="" style="rounded=1;whiteSpace=wrap;html=1;fillColor=none;dashed=1;gradientColor=#b3b3b3;strokeColor=#666666;" vertex="1" parent="1">
          <mxGeometry x="-50" y="516" width="910" height="47" as="geometry" />
        </mxCell>
        <mxCell id="qpLpTHVymYThpegGY-aI-88" style="edgeStyle=orthogonalEdgeStyle;rounded=0;orthogonalLoop=1;jettySize=auto;html=1;entryX=0;entryY=0.5;entryDx=0;entryDy=0;" edge="1" parent="1" source="qpLpTHVymYThpegGY-aI-10" target="qpLpTHVymYThpegGY-aI-49">
          <mxGeometry relative="1" as="geometry" />
        </mxCell>
        <mxCell id="qpLpTHVymYThpegGY-aI-10" value="" style="rounded=1;whiteSpace=wrap;html=1;fillColor=none;dashed=1;gradientColor=#b3b3b3;strokeColor=#666666;" vertex="1" parent="1">
          <mxGeometry x="-50" y="466" width="910" height="47" as="geometry" />
        </mxCell>
        <mxCell id="qpLpTHVymYThpegGY-aI-87" style="edgeStyle=orthogonalEdgeStyle;rounded=0;orthogonalLoop=1;jettySize=auto;html=1;" edge="1" parent="1" source="qpLpTHVymYThpegGY-aI-11" target="qpLpTHVymYThpegGY-aI-48">
          <mxGeometry relative="1" as="geometry" />
        </mxCell>
        <mxCell id="qpLpTHVymYThpegGY-aI-11" value="" style="rounded=1;whiteSpace=wrap;html=1;fillColor=none;dashed=1;gradientColor=#b3b3b3;strokeColor=#666666;" vertex="1" parent="1">
          <mxGeometry x="-50" y="416" width="910" height="47" as="geometry" />
        </mxCell>
        <mxCell id="qpLpTHVymYThpegGY-aI-12" value="" style="rounded=1;whiteSpace=wrap;html=1;fillColor=none;dashed=1;gradientColor=#b3b3b3;strokeColor=#666666;" vertex="1" parent="1">
          <mxGeometry x="-50" y="366" width="910" height="47" as="geometry" />
        </mxCell>
        <mxCell id="qpLpTHVymYThpegGY-aI-13" value="数据节点" style="rounded=1;whiteSpace=wrap;html=1;fillColor=#fff2cc;strokeColor=#d6b656;" vertex="1" parent="1">
          <mxGeometry x="138" y="370" width="120" height="40" as="geometry" />
        </mxCell>
        <mxCell id="qpLpTHVymYThpegGY-aI-14" value="数据节点" style="rounded=1;whiteSpace=wrap;html=1;fillColor=#fff2cc;strokeColor=#d6b656;" vertex="1" parent="1">
          <mxGeometry x="138" y="420" width="120" height="40" as="geometry" />
        </mxCell>
        <mxCell id="qpLpTHVymYThpegGY-aI-15" value="数据节点(主)" style="rounded=1;whiteSpace=wrap;html=1;fillColor=#e1d5e7;strokeColor=#9673a6;" vertex="1" parent="1">
          <mxGeometry x="138" y="470" width="120" height="40" as="geometry" />
        </mxCell>
        <mxCell id="qpLpTHVymYThpegGY-aI-16" value="数据节点(主)" style="rounded=1;whiteSpace=wrap;html=1;fillColor=#e1d5e7;strokeColor=#9673a6;" vertex="1" parent="1">
          <mxGeometry x="138" y="520" width="120" height="40" as="geometry" />
        </mxCell>
        <mxCell id="qpLpTHVymYThpegGY-aI-17" value="数据节点" style="rounded=1;whiteSpace=wrap;html=1;fillColor=#fff2cc;strokeColor=#d6b656;" vertex="1" parent="1">
          <mxGeometry x="138" y="570" width="120" height="40" as="geometry" />
        </mxCell>
        <mxCell id="qpLpTHVymYThpegGY-aI-18" value="数据节点" style="rounded=1;whiteSpace=wrap;html=1;fillColor=#fff2cc;strokeColor=#d6b656;" vertex="1" parent="1">
          <mxGeometry x="138" y="620" width="120" height="40" as="geometry" />
        </mxCell>
        <mxCell id="qpLpTHVymYThpegGY-aI-19" value="MySQL实例" style="rounded=1;whiteSpace=wrap;html=1;fillColor=#cdeb8b;strokeColor=#36393d;" vertex="1" parent="1">
          <mxGeometry x="138" y="220" width="120" height="40" as="geometry" />
        </mxCell>
        <mxCell id="qpLpTHVymYThpegGY-aI-20" value="编目节点(主)" style="rounded=1;whiteSpace=wrap;html=1;fillColor=#cce5ff;strokeColor=#36393d;" vertex="1" parent="1">
          <mxGeometry x="138" y="320" width="120" height="40" as="geometry" />
        </mxCell>
        <mxCell id="qpLpTHVymYThpegGY-aI-21" value="协调节点" style="rounded=1;whiteSpace=wrap;html=1;fillColor=#eeeeee;strokeColor=#36393d;" vertex="1" parent="1">
          <mxGeometry x="138" y="270" width="120" height="40" as="geometry" />
        </mxCell>
        <mxCell id="qpLpTHVymYThpegGY-aI-22" value="host2" style="text;html=1;align=center;verticalAlign=middle;whiteSpace=wrap;rounded=1;" vertex="1" parent="1">
          <mxGeometry x="168" y="660" width="60" height="30" as="geometry" />
        </mxCell>
        <mxCell id="qpLpTHVymYThpegGY-aI-23" value="数据节点" style="rounded=1;whiteSpace=wrap;html=1;fillColor=#fff2cc;strokeColor=#d6b656;" vertex="1" parent="1">
          <mxGeometry x="314" y="370" width="120" height="40" as="geometry" />
        </mxCell>
        <mxCell id="qpLpTHVymYThpegGY-aI-24" value="数据节点" style="rounded=1;whiteSpace=wrap;html=1;fillColor=#fff2cc;strokeColor=#d6b656;" vertex="1" parent="1">
          <mxGeometry x="314" y="420" width="120" height="40" as="geometry" />
        </mxCell>
        <mxCell id="qpLpTHVymYThpegGY-aI-25" value="数据节点" style="rounded=1;whiteSpace=wrap;html=1;fillColor=#fff2cc;strokeColor=#d6b656;" vertex="1" parent="1">
          <mxGeometry x="314" y="470" width="120" height="40" as="geometry" />
        </mxCell>
        <mxCell id="qpLpTHVymYThpegGY-aI-26" value="数据节点" style="rounded=1;whiteSpace=wrap;html=1;fillColor=#fff2cc;strokeColor=#d6b656;" vertex="1" parent="1">
          <mxGeometry x="314" y="520" width="120" height="40" as="geometry" />
        </mxCell>
        <mxCell id="qpLpTHVymYThpegGY-aI-27" value="数据节点(主)" style="rounded=1;whiteSpace=wrap;html=1;fillColor=#e1d5e7;strokeColor=#9673a6;" vertex="1" parent="1">
          <mxGeometry x="314" y="570" width="120" height="40" as="geometry" />
        </mxCell>
        <mxCell id="qpLpTHVymYThpegGY-aI-28" value="数据节点(主)" style="rounded=1;whiteSpace=wrap;html=1;fillColor=#e1d5e7;strokeColor=#9673a6;" vertex="1" parent="1">
          <mxGeometry x="314" y="620" width="120" height="40" as="geometry" />
        </mxCell>
        <mxCell id="qpLpTHVymYThpegGY-aI-29" value="MySQL实例" style="rounded=1;whiteSpace=wrap;html=1;fillColor=#cdeb8b;strokeColor=#36393d;" vertex="1" parent="1">
          <mxGeometry x="314" y="220" width="120" height="40" as="geometry" />
        </mxCell>
        <mxCell id="qpLpTHVymYThpegGY-aI-30" value="编目节点" style="rounded=1;whiteSpace=wrap;html=1;fillColor=#cce5ff;strokeColor=#36393d;" vertex="1" parent="1">
          <mxGeometry x="314" y="320" width="120" height="40" as="geometry" />
        </mxCell>
        <mxCell id="qpLpTHVymYThpegGY-aI-31" value="协调节点" style="rounded=1;whiteSpace=wrap;html=1;fillColor=#eeeeee;strokeColor=#36393d;" vertex="1" parent="1">
          <mxGeometry x="314" y="270" width="120" height="40" as="geometry" />
        </mxCell>
        <mxCell id="qpLpTHVymYThpegGY-aI-32" value="host3" style="text;html=1;align=center;verticalAlign=middle;whiteSpace=wrap;rounded=1;" vertex="1" parent="1">
          <mxGeometry x="344" y="660" width="60" height="30" as="geometry" />
        </mxCell>
        <mxCell id="qpLpTHVymYThpegGY-aI-33" value="数据节点" style="rounded=1;whiteSpace=wrap;html=1;fillColor=#fff2cc;strokeColor=#d6b656;" vertex="1" parent="1">
          <mxGeometry x="552" y="370" width="120" height="40" as="geometry" />
        </mxCell>
        <mxCell id="qpLpTHVymYThpegGY-aI-34" value="数据节点" style="rounded=1;whiteSpace=wrap;html=1;fillColor=#fff2cc;strokeColor=#d6b656;" vertex="1" parent="1">
          <mxGeometry x="552" y="420" width="120" height="40" as="geometry" />
        </mxCell>
        <mxCell id="qpLpTHVymYThpegGY-aI-35" value="数据节点" style="rounded=1;whiteSpace=wrap;html=1;fillColor=#fff2cc;strokeColor=#d6b656;" vertex="1" parent="1">
          <mxGeometry x="552" y="470" width="120" height="40" as="geometry" />
        </mxCell>
        <mxCell id="qpLpTHVymYThpegGY-aI-36" value="数据节点" style="rounded=1;whiteSpace=wrap;html=1;fillColor=#fff2cc;strokeColor=#d6b656;" vertex="1" parent="1">
          <mxGeometry x="552" y="520" width="120" height="40" as="geometry" />
        </mxCell>
        <mxCell id="qpLpTHVymYThpegGY-aI-37" value="数据节点" style="rounded=1;whiteSpace=wrap;html=1;fillColor=#fff2cc;strokeColor=#d6b656;" vertex="1" parent="1">
          <mxGeometry x="552" y="570" width="120" height="40" as="geometry" />
        </mxCell>
        <mxCell id="qpLpTHVymYThpegGY-aI-38" value="数据节点" style="rounded=1;whiteSpace=wrap;html=1;fillColor=#fff2cc;strokeColor=#d6b656;" vertex="1" parent="1">
          <mxGeometry x="552" y="620" width="120" height="40" as="geometry" />
        </mxCell>
        <mxCell id="qpLpTHVymYThpegGY-aI-39" value="MySQL实例" style="rounded=1;whiteSpace=wrap;html=1;fillColor=#cdeb8b;strokeColor=#36393d;" vertex="1" parent="1">
          <mxGeometry x="552" y="220" width="120" height="40" as="geometry" />
        </mxCell>
        <mxCell id="qpLpTHVymYThpegGY-aI-40" value="编目节点" style="rounded=1;whiteSpace=wrap;html=1;fillColor=#cce5ff;strokeColor=#36393d;" vertex="1" parent="1">
          <mxGeometry x="552" y="320" width="120" height="40" as="geometry" />
        </mxCell>
        <mxCell id="qpLpTHVymYThpegGY-aI-41" value="协调节点" style="rounded=1;whiteSpace=wrap;html=1;fillColor=#eeeeee;strokeColor=#36393d;" vertex="1" parent="1">
          <mxGeometry x="552" y="270" width="120" height="40" as="geometry" />
        </mxCell>
        <mxCell id="qpLpTHVymYThpegGY-aI-42" value="host4" style="text;html=1;align=center;verticalAlign=middle;whiteSpace=wrap;rounded=1;" vertex="1" parent="1">
          <mxGeometry x="582" y="660" width="60" height="30" as="geometry" />
        </mxCell>
        <mxCell id="qpLpTHVymYThpegGY-aI-46" value="数据组1" style="rounded=1;whiteSpace=wrap;html=1;fillColor=none;strokeColor=#36393d;" vertex="1" parent="1">
          <mxGeometry x="904" y="369.5" width="80" height="40" as="geometry" />
        </mxCell>
        <mxCell id="qpLpTHVymYThpegGY-aI-47" value="" style="endArrow=classic;html=1;rounded=1;exitX=1;exitY=0.5;exitDx=0;exitDy=0;entryX=0;entryY=0.5;entryDx=0;entryDy=0;" edge="1" parent="1" target="qpLpTHVymYThpegGY-aI-46" source="qpLpTHVymYThpegGY-aI-12">
          <mxGeometry width="50" height="50" relative="1" as="geometry">
            <mxPoint x="690" y="389.5" as="sourcePoint" />
            <mxPoint x="510" y="450" as="targetPoint" />
          </mxGeometry>
        </mxCell>
        <mxCell id="qpLpTHVymYThpegGY-aI-48" value="数据组2" style="rounded=1;whiteSpace=wrap;html=1;fillColor=none;strokeColor=#36393d;" vertex="1" parent="1">
          <mxGeometry x="904" y="419.5" width="80" height="40" as="geometry" />
        </mxCell>
        <mxCell id="qpLpTHVymYThpegGY-aI-49" value="数据组3" style="rounded=1;whiteSpace=wrap;html=1;fillColor=none;strokeColor=#36393d;" vertex="1" parent="1">
          <mxGeometry x="904" y="469.5" width="80" height="40" as="geometry" />
        </mxCell>
        <mxCell id="qpLpTHVymYThpegGY-aI-50" value="数据组N" style="rounded=1;whiteSpace=wrap;html=1;fillColor=none;strokeColor=#36393d;" vertex="1" parent="1">
          <mxGeometry x="904" y="620" width="80" height="40" as="geometry" />
        </mxCell>
        <mxCell id="qpLpTHVymYThpegGY-aI-51" value="……" style="text;html=1;align=center;verticalAlign=middle;whiteSpace=wrap;rounded=1;direction=east;textDirection=vertical-lr;fontStyle=1;" vertex="1" parent="1">
          <mxGeometry x="914" y="550" width="60" height="30" as="geometry" />
        </mxCell>
        <mxCell id="qpLpTHVymYThpegGY-aI-52" value="" style="shape=curlyBracket;whiteSpace=wrap;html=1;rounded=1;flipH=1;labelPosition=right;verticalLabelPosition=middle;align=left;verticalAlign=middle;" vertex="1" parent="1">
          <mxGeometry x="994" y="379.5" width="20" height="266.5" as="geometry" />
        </mxCell>
        <mxCell id="qpLpTHVymYThpegGY-aI-53" value="数据域1" style="rounded=1;whiteSpace=wrap;html=1;fillColor=none;strokeColor=#36393d;" vertex="1" parent="1">
          <mxGeometry x="1024" y="491" width="80" height="40" as="geometry" />
        </mxCell>
        <mxCell id="qpLpTHVymYThpegGY-aI-54" value="巨杉数据库影像平台3+2部署架构示例" style="text;html=1;align=center;verticalAlign=middle;whiteSpace=wrap;rounded=1;fontStyle=1;" vertex="1" parent="1">
          <mxGeometry x="305" y="760" width="266" height="30" as="geometry" />
        </mxCell>
        <mxCell id="qpLpTHVymYThpegGY-aI-55" value="主机房" style="text;html=1;align=center;verticalAlign=middle;whiteSpace=wrap;rounded=1;" vertex="1" parent="1">
          <mxGeometry x="168" y="690" width="60" height="30" as="geometry" />
        </mxCell>
        <mxCell id="qpLpTHVymYThpegGY-aI-56" value="同城容灾机房" style="text;html=1;align=center;verticalAlign=middle;whiteSpace=wrap;rounded=1;" vertex="1" parent="1">
          <mxGeometry x="655" y="690" width="110" height="30" as="geometry" />
        </mxCell>
        <mxCell id="qpLpTHVymYThpegGY-aI-57" style="edgeStyle=orthogonalEdgeStyle;rounded=0;orthogonalLoop=1;jettySize=auto;html=1;startArrow=classic;startFill=1;" edge="1" parent="1" source="qpLpTHVymYThpegGY-aI-59" target="qpLpTHVymYThpegGY-aI-61">
          <mxGeometry relative="1" as="geometry">
            <Array as="points">
              <mxPoint x="430" y="100" />
              <mxPoint x="187" y="100" />
            </Array>
          </mxGeometry>
        </mxCell>
        <mxCell id="qpLpTHVymYThpegGY-aI-58" style="edgeStyle=orthogonalEdgeStyle;rounded=0;orthogonalLoop=1;jettySize=auto;html=1;startArrow=classic;startFill=1;" edge="1" parent="1" source="qpLpTHVymYThpegGY-aI-59" target="qpLpTHVymYThpegGY-aI-60">
          <mxGeometry relative="1" as="geometry">
            <Array as="points">
              <mxPoint x="510" y="100" />
              <mxPoint x="690" y="100" />
            </Array>
          </mxGeometry>
        </mxCell>
        <mxCell id="qpLpTHVymYThpegGY-aI-59" value="" style="html=1;verticalLabelPosition=bottom;verticalAlign=top;outlineConnect=0;shadow=0;dashed=0;shape=mxgraph.rack.hpe_aruba.switches.j9775a_2530_48g_switch;" vertex="1" parent="1">
          <mxGeometry x="402" y="60" width="142" height="15" as="geometry" />
        </mxCell>
        <mxCell id="qpLpTHVymYThpegGY-aI-60" value="" style="html=1;verticalLabelPosition=bottom;verticalAlign=top;outlineConnect=0;shadow=0;dashed=0;shape=mxgraph.rack.hpe_aruba.switches.j9772a_2530_48g_poeplus_switch;" vertex="1" parent="1">
          <mxGeometry x="618" y="150" width="142" height="15" as="geometry" />
        </mxCell>
        <mxCell id="qpLpTHVymYThpegGY-aI-61" value="" style="html=1;verticalLabelPosition=bottom;verticalAlign=top;outlineConnect=0;shadow=0;dashed=0;shape=mxgraph.rack.hpe_aruba.switches.j9772a_2530_48g_poeplus_switch;" vertex="1" parent="1">
          <mxGeometry x="116" y="150" width="142" height="15" as="geometry" />
        </mxCell>
        <mxCell id="qpLpTHVymYThpegGY-aI-62" value="同城高速网络" style="text;html=1;align=center;verticalAlign=middle;whiteSpace=wrap;rounded=1;" vertex="1" parent="1">
          <mxGeometry x="419.5" y="30" width="107" height="30" as="geometry" />
        </mxCell>
        <mxCell id="qpLpTHVymYThpegGY-aI-76" value="数据节点(主)" style="rounded=1;whiteSpace=wrap;html=1;fillColor=#e1d5e7;strokeColor=#9673a6;" vertex="1" parent="1">
          <mxGeometry x="-37" y="370" width="120" height="40" as="geometry" />
        </mxCell>
        <mxCell id="qpLpTHVymYThpegGY-aI-77" value="数据节点(主)" style="rounded=1;whiteSpace=wrap;html=1;fillColor=#e1d5e7;strokeColor=#9673a6;" vertex="1" parent="1">
          <mxGeometry x="-37" y="420" width="120" height="40" as="geometry" />
        </mxCell>
        <mxCell id="qpLpTHVymYThpegGY-aI-78" value="数据节点" style="rounded=1;whiteSpace=wrap;html=1;fillColor=#fff2cc;strokeColor=#d6b656;" vertex="1" parent="1">
          <mxGeometry x="-37" y="470" width="120" height="40" as="geometry" />
        </mxCell>
        <mxCell id="qpLpTHVymYThpegGY-aI-79" value="数据节点" style="rounded=1;whiteSpace=wrap;html=1;fillColor=#fff2cc;strokeColor=#d6b656;" vertex="1" parent="1">
          <mxGeometry x="-37" y="520" width="120" height="40" as="geometry" />
        </mxCell>
        <mxCell id="qpLpTHVymYThpegGY-aI-80" value="数据节点" style="rounded=1;whiteSpace=wrap;html=1;fillColor=#fff2cc;strokeColor=#d6b656;" vertex="1" parent="1">
          <mxGeometry x="-37" y="570" width="120" height="40" as="geometry" />
        </mxCell>
        <mxCell id="qpLpTHVymYThpegGY-aI-81" value="数据节点" style="rounded=1;whiteSpace=wrap;html=1;fillColor=#fff2cc;strokeColor=#d6b656;" vertex="1" parent="1">
          <mxGeometry x="-37" y="620" width="120" height="40" as="geometry" />
        </mxCell>
        <mxCell id="qpLpTHVymYThpegGY-aI-82" value="MySQL实例" style="rounded=1;whiteSpace=wrap;html=1;fillColor=#cdeb8b;strokeColor=#36393d;" vertex="1" parent="1">
          <mxGeometry x="-37" y="220" width="120" height="40" as="geometry" />
        </mxCell>
        <mxCell id="qpLpTHVymYThpegGY-aI-83" value="编目节点(主)" style="rounded=1;whiteSpace=wrap;html=1;fillColor=#cce5ff;strokeColor=#36393d;" vertex="1" parent="1">
          <mxGeometry x="-37" y="320" width="120" height="40" as="geometry" />
        </mxCell>
        <mxCell id="qpLpTHVymYThpegGY-aI-84" value="协调节点" style="rounded=1;whiteSpace=wrap;html=1;fillColor=#eeeeee;strokeColor=#36393d;" vertex="1" parent="1">
          <mxGeometry x="-37" y="270" width="120" height="40" as="geometry" />
        </mxCell>
        <mxCell id="qpLpTHVymYThpegGY-aI-85" value="host1" style="text;html=1;align=center;verticalAlign=middle;whiteSpace=wrap;rounded=1;" vertex="1" parent="1">
          <mxGeometry x="-7" y="660" width="60" height="30" as="geometry" />
        </mxCell>
      </root>
    </mxGraphModel>
  </diagram>
</mxfile>
